<mxfile host="app.diagrams.net" modified="2021-12-04T09:57:20.036Z" agent="5.0 (Windows)" etag="aq_nen-a8NhYAMtdxgpm" version="15.9.1" type="github">
  <diagram id="OUHfTW3WMx3Tj-5QhKi1" name="Page-1">
    <mxGraphModel dx="1422" dy="752" grid="1" gridSize="10" guides="1" tooltips="1" connect="1" arrows="1" fold="1" page="1" pageScale="1" pageWidth="1169" pageHeight="827" math="0" shadow="0">
      <root>
        <mxCell id="0" />
        <mxCell id="1" parent="0" />
        <mxCell id="H9z3s9ybnBbBw3OdSYZK-1" value="" style="outlineConnect=0;dashed=0;verticalLabelPosition=bottom;verticalAlign=top;align=center;html=1;shape=mxgraph.aws3.lambda_function;fillColor=#F58534;gradientColor=none;" vertex="1" parent="1">
          <mxGeometry x="820" y="288.5" width="69" height="72" as="geometry" />
        </mxCell>
        <mxCell id="H9z3s9ybnBbBw3OdSYZK-8" value="Create Branch" style="edgeStyle=orthogonalEdgeStyle;rounded=0;orthogonalLoop=1;jettySize=auto;html=1;" edge="1" parent="1" source="H9z3s9ybnBbBw3OdSYZK-3" target="H9z3s9ybnBbBw3OdSYZK-6">
          <mxGeometry relative="1" as="geometry" />
        </mxCell>
        <mxCell id="H9z3s9ybnBbBw3OdSYZK-3" value="" style="dashed=0;outlineConnect=0;html=1;align=center;labelPosition=center;verticalLabelPosition=bottom;verticalAlign=top;shape=mxgraph.weblogos.github" vertex="1" parent="1">
          <mxGeometry x="50" y="287" width="75" height="75" as="geometry" />
        </mxCell>
        <mxCell id="H9z3s9ybnBbBw3OdSYZK-9" value="Content" style="edgeStyle=orthogonalEdgeStyle;rounded=0;orthogonalLoop=1;jettySize=auto;html=1;" edge="1" parent="1" source="H9z3s9ybnBbBw3OdSYZK-6" target="H9z3s9ybnBbBw3OdSYZK-7">
          <mxGeometry relative="1" as="geometry" />
        </mxCell>
        <mxCell id="H9z3s9ybnBbBw3OdSYZK-6" value="" style="aspect=fixed;html=1;points=[];align=center;image;fontSize=12;image=img/lib/azure2/general/Branch.svg;" vertex="1" parent="1">
          <mxGeometry x="230" y="288.5" width="72" height="72" as="geometry" />
        </mxCell>
        <mxCell id="H9z3s9ybnBbBw3OdSYZK-11" value="trigger GitHub Action" style="edgeStyle=orthogonalEdgeStyle;rounded=0;orthogonalLoop=1;jettySize=auto;html=1;" edge="1" parent="1" source="H9z3s9ybnBbBw3OdSYZK-7" target="H9z3s9ybnBbBw3OdSYZK-10">
          <mxGeometry relative="1" as="geometry" />
        </mxCell>
        <mxCell id="H9z3s9ybnBbBw3OdSYZK-7" value="Terraform" style="rounded=0;whiteSpace=wrap;html=1;" vertex="1" parent="1">
          <mxGeometry x="402" y="294.5" width="120" height="60" as="geometry" />
        </mxCell>
        <mxCell id="H9z3s9ybnBbBw3OdSYZK-12" value="deploys" style="edgeStyle=orthogonalEdgeStyle;rounded=0;orthogonalLoop=1;jettySize=auto;html=1;" edge="1" parent="1" source="H9z3s9ybnBbBw3OdSYZK-10" target="H9z3s9ybnBbBw3OdSYZK-1">
          <mxGeometry relative="1" as="geometry" />
        </mxCell>
        <mxCell id="H9z3s9ybnBbBw3OdSYZK-10" value="" style="dashed=0;outlineConnect=0;html=1;align=center;labelPosition=center;verticalLabelPosition=bottom;verticalAlign=top;shape=mxgraph.weblogos.github" vertex="1" parent="1">
          <mxGeometry x="650" y="287" width="75" height="75" as="geometry" />
        </mxCell>
        <mxCell id="H9z3s9ybnBbBw3OdSYZK-14" value="&lt;div&gt;validate commits&lt;/div&gt;&lt;div&gt;security / code quality&lt;br&gt;&lt;/div&gt;" style="edgeStyle=orthogonalEdgeStyle;rounded=0;orthogonalLoop=1;jettySize=auto;html=1;" edge="1" parent="1" source="H9z3s9ybnBbBw3OdSYZK-13">
          <mxGeometry relative="1" as="geometry">
            <mxPoint x="266" y="380" as="targetPoint" />
          </mxGeometry>
        </mxCell>
        <mxCell id="H9z3s9ybnBbBw3OdSYZK-13" value="Security Pipelines" style="shape=process;whiteSpace=wrap;html=1;backgroundOutline=1;" vertex="1" parent="1">
          <mxGeometry x="206" y="500" width="120" height="60" as="geometry" />
        </mxCell>
      </root>
    </mxGraphModel>
  </diagram>
</mxfile>
